<svg width="808" height="94" viewBox="0 0 808 94" fill="none" xmlns="http://www.w3.org/2000/svg">
<g clip-path="url(#clip0_8_270)">
<path fill-rule="evenodd" clip-rule="evenodd" d="M30.25 0.698725L0 0.978725V6.93473V12.8897L12.75 13.1697L25.5 13.4497L25.764 46.7437L26.027 80.0367L33.264 79.7437L40.5 79.4497V46.4497V13.4497H53.251H66.002L66.001 7.31673L66 1.18273L63.75 0.579725C62.513 0.248725 61.275 0.0767253 61 0.197725C60.725 0.319725 46.888 0.545725 30.25 0.698725ZM268.382 2.02273C262.139 4.42373 256.44 9.77073 253.614 15.8797L251.5 20.4497V39.9497V59.4497L254.314 65.1797C257.62 71.9117 262.489 76.2537 269.468 78.6917L274.5 80.4497L283.604 81.4126L294.5 80.3377L299.5 78.0897C308.57 74.0127 313.214 67.7847 314.82 57.5467L315.697 51.9497H308.467H301.237L300.145 56.2867C298.077 64.5027 290.65 68.7737 280.514 67.5767C275.191 66.9477 271.877 65.0047 268.562 60.5657L266.5 57.8047L266.188 41.6267L265.875 25.4497L268.188 20.9497C271.112 15.2577 275.462 12.9537 283.282 12.9517C293.183 12.9487 297.871 16.0917 300.063 24.1997L301.077 27.9497H308.039H315V24.6277C315 18.8927 311.931 11.8287 307.526 7.42373C301.798 1.69572 296.123 -0.0632747 283.572 0.00172531L273.5 0.0537253L268.382 2.02273ZM695.5 0.598725C688.866 1.58973 683.219 4.14173 679.744 7.71873C675.32 12.2717 674 15.5657 674 22.0467C674 34.6187 680.755 40.2567 700.814 44.4277C710.342 46.4097 717.505 49.5447 719.516 52.6137C720.402 53.9667 721.152 56.8917 721.183 59.1137C721.286 66.5597 715.115 71.7667 705.113 72.6727C693.549 73.7217 683.732 65.8887 681.197 58.4497H676.604L672.104 58.4126C672.104 66.2496 678.493 75.4937 687.423 78.8347L693.075 80.9497H701.356C712.671 80.9497 719.118 78.8837 724.453 73.5497L728.721 69.2817L729.969 64.0767L731.218 58.8727L730.034 54.1607C727.491 44.0437 721.415 40.0187 701.917 35.5367L690.334 32.8747L686.604 30.4126L683.865 27.4497L683.323 23.3627C682.177 14.7257 688.833 9.01573 700.101 8.97173C710.291 8.93173 717.918 16.6176 720.104 23.9126L724.658 23.9497H729.104V23.9126C729.081 16.4736 722.994 6.48373 715.236 3.14673C710.346 1.04273 700.786 -0.191275 695.5 0.598725ZM86 40.4497V79.9497H93.5H101V64.9497V49.9497L108.75 49.9717L116.5 49.9937L124.308 63.8967C128.602 71.5447 132.652 78.2427 133.308 78.7837C134.507 79.7727 150 80.3557 150 79.4127C150 79.1347 148.938 77.2287 147.639 75.1787C144.508 70.2327 132 48.0397 132 47.4287C132 47.1657 132.538 46.9497 133.196 46.9497C133.854 46.9497 136.025 45.8187 138.02 44.4357C152.233 34.5867 148.628 8.09973 132.319 2.54273L127.644 0.949725H106.822H86V40.4497ZM190.646 1.71373C190.361 2.17473 184.751 16.7047 178.18 34.0007C171.609 51.2977 165.055 68.3397 163.616 71.8717C162.177 75.4047 161 78.6167 161 79.0107C161 79.4047 164.432 79.6647 168.627 79.5887L176.254 79.4497L181.14 65.9497C183.827 58.5247 189.02 44.4147 192.679 34.5927L199.332 16.7367L200.542 19.0927C202.26 22.4397 222 75.5467 222 76.8227C222 78.7537 225.797 79.9497 231.934 79.9497C236.106 79.9497 238 79.5607 238 78.7047C238 77.0357 231.938 61.0167 218.982 28.4497L208.24 1.44973L199.703 1.16173C195.007 1.00373 190.931 1.25173 190.646 1.71373ZM336 39.8337V78.7167L342.75 79.1847C346.462 79.4427 349.837 79.4687 350.25 79.2427C350.663 79.0167 351 73.5497 351 67.0937V55.3557L354.955 51.4937L358.911 47.6307L360.433 48.8937C361.27 49.5887 367.192 56.6697 373.593 64.6287C379.995 72.5887 385.78 79.3117 386.45 79.5687C387.119 79.8257 391.353 79.9037 395.857 79.7427L404.047 79.4497L387.024 58.2657C377.661 46.6137 370 36.6857 370 36.2027C370 35.7197 374.998 29.7277 381.106 22.8867C387.215 16.0467 394.007 8.31273 396.2 5.69973L400.186 0.949725H391.323H382.46L366.98 18.3777L351.5 35.8057L351.227 18.3777L350.954 0.949725H343.477H336V39.8337ZM421.104 1.41263C421.104 2.22563 422.771 8.66673 424.936 14.6217C427.101 20.5777 433.591 38.4997 439.357 54.4497C445.124 70.3997 452.974 90.6597 454.162 93.4097C456.153 89.6377 488.104 3.07963 488.104 1.41263H483.604H478.604L473.253 16.9497C470.245 25.4747 464.781 41.0817 461.111 51.6317L454.438 70.8127L448.517 53.6317C445.261 44.1817 439.815 28.5747 436.415 18.9497L430.104 1.41263H425.604L421.104 1.44973V1.41263ZM593.104 2.91263C593.104 2.91263 592.628 21.4367 592.785 42.1997L593.07 79.9497H597.535H602V63.9157V47.8817L612.654 48.1657L623.308 48.4497L632.237 64.1997L641.165 79.9497H646.521H651.877L642.938 64.0577C638.022 55.3177 634 47.6677 634 47.0577C634 46.4487 634.571 45.9497 635.268 45.9497C638.365 45.9497 644.285 40.5347 646.582 35.6017C652.432 23.0367 647.855 9.10773 636.257 4.18173L631.5 2.16173L612.676 1.75973L593.104 1.41263V2.91263ZM755 1.98573V40.9677V79.9497H781.5H808V71.9497H786.5H765V57.9497V43.9497H783.5H802V39.9497V35.9497H783.5H765V22.9697V9.98973L786.25 9.71973L808 9.5V1.5C806.625 1.479 768.063 1.81673 755 1.98573ZM513 40.9497V79.9497H539.5H566V75.9497V71.9497H544H522V57.9497V43.9497H540.5H559V39.9727V35.9947L540.75 35.7227L522.5 35.4497L522.22 22.6997L521.94 9.94973H543.47H565V5.94973V1.94973H539H513V40.9497ZM602 24.2127V38.6627L610.993 39.3417C632.021 40.9287 639.447 36.9697 639.327 24.2357C639.273 18.4917 637.511 14.9867 633.283 12.2137L630.594 10.4497L616.297 10.1057L602 9.76173V24.2127ZM101 25.4497V37.9497H111.532C123.715 37.9497 128.102 36.5867 130.434 32.0777C133.854 25.4637 131.442 16.8677 125.466 14.3707C123.257 13.4477 118.372 12.9497 111.532 12.9497H101V25.4497ZM190.265 68.5477C190.102 68.3857 190.25 68.5909 190.265 68.5477L208.935 58.9027C206.135 55.0647 198.644 44.9497 198.508 44.9497C198.373 44.9497 192.545 62.1397 190.265 68.5477Z" fill="white"/>
</g>
<defs>
<clipPath id="clip0_8_270">
<rect width="808" height="93.4497" fill="white"/>
</clipPath>
</defs>
</svg>
