<svg width="512" height="512" viewBox="0 0 512 512" fill="none" xmlns="http://www.w3.org/2000/svg">
<path fill-rule="evenodd" clip-rule="evenodd" d="M145.44 1.99274L34 3.0265V25.0159V47.0016L80.9705 48.0354L127.941 49.0692L128.914 171.99L129.882 294.907L156.543 293.825L183.2 292.74V170.904V49.0692H230.175H277.149L277.145 26.4263L277.141 3.77966L268.853 1.5534C264.295 0.331352 259.735 -0.303669 258.722 0.143061C257.709 0.593482 206.734 1.42787 145.44 1.99274ZM230.175 171.99C230.175 174.991 236.315 198.772 244.291 220.758C252.267 242.747 276.176 308.915 297.417 367.802C318.663 426.689 347.582 501.488 351.958 511.641C359.293 497.715 477 178.144 477 171.99H460.422H442.002L422.289 229.353C411.208 260.827 391.078 318.447 377.558 357.398L352.975 428.214L331.163 364.782C319.168 329.892 299.105 272.272 286.579 236.736L263.33 171.99H246.752L230.175 172.127V171.99Z" fill="white"/>
</svg>
